# xmcd
#
# Track frame offsets: 
#        150
#        6255
#        21010
#        30310
#        39602
#        52622
#        60962
#        71925
#        80962
#        89192
#        106550
#        118307
#        131607
#        141285
#        150945
#        158312
#        182472
#        190942
#        211240
#        219037
#        232962
#        247160
#        256560
#        271687
#        279135
#
# Disc length: 3809 seconds
#
# Revision: 2
# Processed by: cddbd v1.5.2PL0 Copyright (c) Steve Scherf et al.
# Submitted via: ExactAudioCopyFreeDBPlugin 1.0
#
DISCID=3f0edf19
DTITLE=John Hartford - Looks At Life - Earthwords and Music
DYEAR=1967
DGENRE=Folk/Rock
TTITLE0=I Reckon
TTITLE1=Today
TTITLE2=A Man Smoking A Cigar
TTITLE3=Untangle Your Mind
TTITLE4=Like Unto A Mockingbird
TTITLE5=I Shoulda Wore My Birthday Suit
TTITLE6=Tall Tall Grass, The
TTITLE7=Front Porch
TTITLE8=Eve Of My Multification
TTITLE9=When The Sky Began To Fall
TTITLE10=Corn Cob Blues
TTITLE11=Minus The Woman
TTITLE12=Jack's In The Sack
TTITLE13=(Good Old Electric) Washing Machine (Circa. 1943)
TTITLE14=Love Song in 2-4 Time
TTITLE15=Daytime Of Life
TTITLE16=Whose That
TTITLE17=There Are No Fools In Heaven (Anyman's Inferno)
TTITLE18=Earthword's
TTITLE19=Gentle On My Mind
TTITLE20=Naked In Spite Of Myself
TTITLE21=How Come You're Being So Good To Me
TTITLE22=No End Of Love
TTITLE23=Left Handed Woman
TTITLE24=Baking Soda
EXTD=
EXTT0=
EXTT1=
EXTT2=
EXTT3=
EXTT4=
EXTT5=
EXTT6=
EXTT7=
EXTT8=
EXTT9=
EXTT10=
EXTT11=
EXTT12=
EXTT13=
EXTT14=
EXTT15=
EXTT16=
EXTT17=
EXTT18=
EXTT19=
EXTT20=
EXTT21=
EXTT22=
EXTT23=
EXTT24=
PLAYORDER=
